<svg id="Calque_1" data-name="Calque 1" xmlns="http://www.w3.org/2000/svg" viewBox="0 0 999.89 1000"><defs><style>.cls-1{fill:#f7931a;}.cls-2{fill:#fff;}</style></defs><path class="cls-1" d="M985.21,621.17C918.44,889,647.14,1052,379.25,985.25s-430.8-338.1-364-605.93S353.31-51.6,621.12,15.18,1052,353.3,985.21,621.17Z" transform="translate(-0.29 -0.22)"/><path class="cls-2" d="M720.71,429c9.95-66.54-40.71-102.31-110-126.17l22.47-90.13L578.33,199l-21.87,87.76c-14.43-3.6-29.24-7-44-10.35l22-88.34L479.7,174.41l-22.48,90.1c-11.94-2.71-23.66-5.4-35-8.23l.07-.28-75.67-18.9L332,295.7s40.71,9.33,39.85,9.91c22.22,5.54,26.23,20.25,25.57,31.91L371.81,440.2a44.74,44.74,0,0,1,5.7,1.83c-1.83-.45-3.78-.95-5.8-1.43L335.83,584.44c-2.71,6.75-9.6,16.88-25.14,13,.55.79-39.88-10-39.88-10l-27.24,62.81,71.4,17.8c13.29,3.33,26.3,6.81,39.12,10.09l-22.7,91.17,54.8,13.67,22.49-90.2c15,4.07,29.5,7.81,43.72,11.35L430,794l54.87,13.67,22.7-91c93.56,17.7,163.91,10.57,193.52-74.06,23.86-68.13-1.19-107.43-50.41-133.06,35.85-8.27,62.86-31.84,70.06-80.55l0,0ZM595.35,604.76c-17,68.14-131.67,31.31-168.86,22.07l30.13-120.78c37.19,9.28,156.45,27.66,138.73,98.71Zm17-176.77c-15.47,62-111,30.49-141.92,22.77l27.32-109.54c31,7.72,130.71,22.13,114.6,86.77Z" transform="translate(-0.29 -0.22)"/></svg>