<svg id="Calque_2" data-name="Calque 2" xmlns="http://www.w3.org/2000/svg" viewBox="0 0 999.89 1000"><defs><style>.cls-1{fill:#0033ad;}.cls-2{fill:#fff;}</style></defs><path class="cls-1" d="M985.29,620.69c-66.78,267.86-338.08,430.88-606,364.08s-430.79-338.09-364-605.93S353.38-52.07,621.19,14.7s430.88,338.13,364.09,606Z" transform="translate(-0.36 0.26)"/><path class="cls-2" d="M336,497.6a49,49,0,0,0,46.16,51.59h2.91A49,49,0,1,0,336,497.6Z" transform="translate(-0.36 0.26)"/><path class="cls-2" d="M153.33,485a15.83,15.83,0,1,0,14.94,16.68A15.72,15.72,0,0,0,153.33,485Z" transform="translate(-0.36 0.26)"/><path class="cls-2" d="M332.94,213.26a15.88,15.88,0,1,0-14.36-28.32,15.88,15.88,0,0,0,14.36,28.32Z" transform="translate(-0.36 0.26)"/><path class="cls-2" d="M382.59,300a24.42,24.42,0,1,0-32.78-10.86A24.48,24.48,0,0,0,382.59,300Z" transform="translate(-0.36 0.26)"/><path class="cls-2" d="M215.4,359.5a20.17,20.17,0,1,0-5.82-27.93h0A20.07,20.07,0,0,0,215.4,359.5Z" transform="translate(-0.36 0.26)"/><path class="cls-2" d="M245.07,476.26a24.48,24.48,0,1,0,23.08,25.8h0A24.49,24.49,0,0,0,245.07,476.26Z" transform="translate(-0.36 0.26)"/><path class="cls-2" d="M218.11,640.54a20.21,20.21,0,1,0,27.16,8.92h0a20.29,20.29,0,0,0-27.16-8.92Z" transform="translate(-0.36 0.26)"/><path class="cls-2" d="M313.15,425.64a28.73,28.73,0,1,0-8.34-39.76,28.55,28.55,0,0,0,8.34,39.76Z" transform="translate(-0.36 0.26)"/><path class="cls-2" d="M614.75,298a24.51,24.51,0,1,0-7-33.94h0a24.24,24.24,0,0,0,7,33.94Z" transform="translate(-0.36 0.26)"/><path class="cls-2" d="M664.79,211.71a15.84,15.84,0,1,0-4.65-22.11,16.34,16.34,0,0,0,4.65,22.11Z" transform="translate(-0.36 0.26)"/><path class="cls-2" d="M618.44,450.85A49,49,0,0,0,613,548.61h2.71a48.92,48.92,0,0,0,2.72-97.76Z" transform="translate(-0.36 0.26)"/><path class="cls-2" d="M398.69,422.15a49,49,0,1,0,21.72-65.95,49.07,49.07,0,0,0-21.72,65.95Z" transform="translate(-0.36 0.26)"/><path class="cls-2" d="M782.52,359.5a20.17,20.17,0,1,0-27.34-8.92,20.5,20.5,0,0,0,27.34,8.92Z" transform="translate(-0.36 0.26)"/><path class="cls-2" d="M658.39,375a28.76,28.76,0,1,0,38.6,12.8A28.76,28.76,0,0,0,658.39,375Z" transform="translate(-0.36 0.26)"/><path class="cls-2" d="M498.38,204.34a20.43,20.43,0,0,0,21.33-19c.78-11.05-8-20.56-19-21.33a20.27,20.27,0,0,0-21.34,18.81,20.5,20.5,0,0,0,19,21.53Z" transform="translate(-0.36 0.26)"/><path class="cls-2" d="M498.19,331A28.75,28.75,0,1,0,471,300.73,28.55,28.55,0,0,0,498.19,331Z" transform="translate(-0.36 0.26)"/><path class="cls-2" d="M342.25,625a28.76,28.76,0,1,0-38.6-12.81A28.78,28.78,0,0,0,342.25,625Z" transform="translate(-0.36 0.26)"/><path class="cls-2" d="M516.8,373.08A49,49,0,1,0,557.73,351,48.84,48.84,0,0,0,516.8,373.08Z" transform="translate(-0.36 0.26)"/><path class="cls-2" d="M602,577.89a49,49,0,1,0-21.72,65.76h0a48.74,48.74,0,0,0,21.91-65.37C602.14,578.09,602.14,578.09,602,577.89Z" transform="translate(-0.36 0.26)"/><path class="cls-2" d="M687.48,574.4a28.73,28.73,0,1,0,8.34,39.76,28.56,28.56,0,0,0-8.34-39.76Z" transform="translate(-0.36 0.26)"/><path class="cls-2" d="M781.36,500.89A24.48,24.48,0,1,0,755.56,524h0A24.63,24.63,0,0,0,781.36,500.89Z" transform="translate(-0.36 0.26)"/><path class="cls-2" d="M849.05,483.44A15.83,15.83,0,1,0,864,500.12,16,16,0,0,0,849.05,483.44Z" transform="translate(-0.36 0.26)"/><path class="cls-2" d="M785.24,640.54a20.17,20.17,0,1,0,5.82,27.93,20.08,20.08,0,0,0-5.82-27.93Z" transform="translate(-0.36 0.26)"/><path class="cls-2" d="M335.65,788.34a15.81,15.81,0,1,0,4.46,21.91h0A15.57,15.57,0,0,0,335.65,788.34Z" transform="translate(-0.36 0.26)"/><path class="cls-2" d="M667.7,786.78a15.87,15.87,0,0,0,14.35,28.32,15.87,15.87,0,0,0-14.35-28.32Z" transform="translate(-0.36 0.26)"/><path class="cls-2" d="M483.83,627A49,49,0,1,0,416,641.12,49.17,49.17,0,0,0,483.83,627Z" transform="translate(-0.36 0.26)"/><path class="cls-2" d="M385.89,702a24.5,24.5,0,1,0,7,33.94h0A24.27,24.27,0,0,0,385.89,702Z" transform="translate(-0.36 0.26)"/><path class="cls-2" d="M500.12,795.71a20.43,20.43,0,0,0-21.33,19c-.78,11.06,7.95,20.56,19,21.34a20.28,20.28,0,0,0,21.33-18.82,20.49,20.49,0,0,0-19-21.52Z" transform="translate(-0.36 0.26)"/><path class="cls-2" d="M500.32,669.05a28.75,28.75,0,1,0,27.15,30.26,28.56,28.56,0,0,0-27.15-30.26Z" transform="translate(-0.36 0.26)"/><path class="cls-2" d="M618.05,700.09A24.5,24.5,0,1,0,651.22,711a24.5,24.5,0,0,0-33.17-10.86Z" transform="translate(-0.36 0.26)"/></svg>