<svg id="Calque_1" data-name="Calque 1" xmlns="http://www.w3.org/2000/svg" viewBox="0 0 999.9 1000"><defs><style>.cls-1{fill:#e2e2e2;}.cls-2{fill:#343434;}.cls-3{fill:#8c8c8c;}.cls-4{fill:#3c3c3b;}.cls-5{fill:#141414;}.cls-6{fill:#393939;}</style></defs><path class="cls-1" d="M984.93,621c-66.78,267.86-338.07,430.87-606,364.08S-51.85,646.93,15,379.09,353-51.82,620.84,15s430.87,338.12,364.09,606Z" transform="translate(0.01 0)"/><polygon class="cls-2" points="500.12 114.07 494.94 131.67 494.94 642.41 500.12 647.58 737.2 507.45 500.12 114.07"/><polygon class="cls-3" points="500.12 114.07 263.04 507.45 500.12 647.58 500.12 399.69 500.12 114.07"/><polygon class="cls-4" points="500.12 692.47 497.2 696.03 497.2 877.97 500.12 886.49 737.34 552.4 500.12 692.47"/><polygon class="cls-3" points="500.12 886.49 500.12 692.47 263.04 552.4 500.12 886.49"/><polygon class="cls-5" points="500.12 647.58 737.2 507.45 500.12 399.69 500.12 647.58"/><polygon class="cls-6" points="263.04 507.45 500.12 647.58 500.12 399.69 263.04 507.45"/></svg>