<svg id="Calque_2" data-name="Calque 2" xmlns="http://www.w3.org/2000/svg" viewBox="0 0 1000 1000"><defs><style>.cls-1{fill:#fff;}.cls-2{fill:#345d9d;}</style></defs><circle class="cls-1" cx="500" cy="500" r="445.88"/><path class="cls-2" d="M500,0C223.86,0,0,223.86,0,500s223.86,500,500,500,500-223.86,500-500h0C1000.8,224.66,778.25.8,502.91,0H500Zm8.47,517L456.42,692.49H734.87A14,14,0,0,1,749.39,706h0v4.6l-24.21,83.54A18,18,0,0,1,707,807.51H280.87L352.3,564.16l-79.9,24.22,18.16-55.69,79.9-24.22,100.48-341.4a18.29,18.29,0,0,1,18.16-13.32H596.85a14,14,0,0,1,14.53,13.55h0v4.6L526.63,460.05l79.91-24.21L589.59,494Z"/></svg>